<svg width="12" height="12" viewBox="0 0 12 12" fill="none" xmlns="http://www.w3.org/2000/svg">
<path fill-rule="evenodd" clip-rule="evenodd" d="M6.03074 11.6855C9.11305 11.6855 11.6118 9.18678 11.6118 6.10447C11.6118 3.02215 9.11305 0.523438 6.03074 0.523438C2.94842 0.523438 0.449707 3.02215 0.449707 6.10447C0.449707 9.18678 2.94842 11.6855 6.03074 11.6855ZM3.48052 4.79124C4.01787 4.09316 4.48023 3.50121 4.50798 3.47577L4.55845 3.42954H5.62847C6.48009 3.42954 6.69589 3.43383 6.68572 3.45056C6.67868 3.46212 6.35023 3.88008 5.9558 4.37937C5.56137 4.87866 5.23228 5.29747 5.22448 5.31008C5.21427 5.32659 5.30942 5.43223 5.56516 5.68833C5.7738 5.89726 5.92424 6.06125 5.9303 6.08635C5.93598 6.10983 5.93224 6.15144 5.92204 6.17881C5.91181 6.20619 5.74817 6.38404 5.55839 6.57402L5.21332 6.91947L5.95624 7.83485L6.69917 8.75025L5.63275 8.75458C4.61909 8.7587 4.56424 8.75739 4.52423 8.72792C4.50107 8.71088 4.03695 8.13484 3.49281 7.44786C2.54785 6.25481 2.5035 6.1957 2.50352 6.12964C2.50353 6.06402 2.55356 5.99548 3.48052 4.79124ZM5.83038 5.31006C5.89009 5.21133 7.28867 3.45461 7.31656 3.44333C7.33212 3.43704 7.71313 3.43138 8.16326 3.43072L8.98169 3.42954L9.03736 3.46737C9.15428 3.5468 9.19853 3.66996 9.15084 3.78318C9.13735 3.81521 8.75264 4.31423 8.29592 4.89211C7.8392 5.46999 7.44405 5.9723 7.41781 6.00836C7.363 6.08366 7.3563 6.15921 7.39895 6.22064C7.41483 6.2435 7.79793 6.71829 8.25029 7.27571C8.70264 7.83315 9.09197 8.31731 9.11545 8.35162C9.15143 8.40424 9.15711 8.42865 9.15157 8.50724C9.14399 8.61468 9.10826 8.6727 9.01806 8.72389C8.95854 8.7577 8.93459 8.75865 8.15614 8.75865C7.71575 8.75865 7.33739 8.75179 7.31533 8.74342C7.27549 8.72831 6.81838 8.17494 6.16217 7.34746L5.82147 6.91784L6.15617 6.58162C6.34024 6.3967 6.49924 6.22887 6.5095 6.20868C6.53622 6.156 6.53246 6.0829 6.50055 6.03481C6.4854 6.01194 6.32529 5.84467 6.14477 5.6631C5.91042 5.42739 5.82049 5.32642 5.83038 5.31006Z" fill="#F9F9F9"/>
</svg>
