<svg width="18" height="19" viewBox="0 0 18 19" fill="none" xmlns="http://www.w3.org/2000/svg">
<path d="M16.7448 13.3948V15.7698C16.7457 15.9902 16.7005 16.2085 16.6122 16.4105C16.5238 16.6125 16.3943 16.7938 16.2318 16.9429C16.0694 17.0919 15.8775 17.2054 15.6687 17.2761C15.4598 17.3467 15.2385 17.3729 15.0189 17.3531C12.5828 17.0884 10.2428 16.2559 8.18684 14.9227C6.27404 13.7072 4.65232 12.0855 3.43684 10.1727C2.09891 8.10737 1.26628 5.75596 1.00643 3.30892C0.986642 3.09 1.01266 2.86935 1.08282 2.66104C1.15298 2.45272 1.26575 2.2613 1.41395 2.09895C1.56214 1.93661 1.74252 1.8069 1.94359 1.71808C2.14467 1.62927 2.36203 1.58329 2.58184 1.58308H4.95684C5.34104 1.5793 5.71351 1.71536 6.00482 1.96588C6.29613 2.21641 6.4864 2.56431 6.54018 2.94475C6.64042 3.7048 6.82632 4.45108 7.09434 5.16933C7.20086 5.45269 7.22391 5.76064 7.16077 6.0567C7.09763 6.35275 6.95094 6.62451 6.73809 6.83975L5.73268 7.84517C6.85966 9.82714 8.5007 11.4682 10.4827 12.5952L11.4881 11.5898C11.7033 11.3769 11.9751 11.2302 12.2711 11.1671C12.5672 11.1039 12.8752 11.127 13.1585 11.2335C13.8768 11.5015 14.623 11.6874 15.3831 11.7877C15.7677 11.8419 16.1189 12.0356 16.3699 12.3319C16.621 12.6282 16.7544 13.0065 16.7448 13.3948Z" stroke="#242021" stroke-width="1.5" stroke-linecap="round" stroke-linejoin="round"/>
</svg>
